# xmcd
#
# Track frame offsets: 
#        180
#        32985
#        68987
#        96752
#        124075
#        151385
#        180200
#
# Disc length: 2690 seconds
#
# Revision: 4
# Processed by: cddbd v1.5.2PL0 Copyright (c) Steve Scherf et al.
# Submitted via: ExactAudioCopyFreeDBPlugin 1.0
#
DISCID=540a8007
DTITLE=Tsuyoshi Yamamoto Trio - Misty
DYEAR=1974
DGENRE=Jazz
TTITLE0=MISTY
TTITLE1=BLUES
TTITLE2=YESTERDAYS
TTITLE3=HONEY SUCKLE ROSE
TTITLE4=SMOKE GETS IN YOUR EYES
TTITLE5=I DIDN'T KNOW WHAT TIME IT WAS
TTITLE6=ANGEL EYES
EXTD=YEAR: 1974
EXTT0=
EXTT1=
EXTT2=
EXTT3=
EXTT4=
EXTT5=
EXTT6=
PLAYORDER=
